<?xml version="1.0" standalone="no"?>
<!DOCTYPE svg PUBLIC "-//W3C//DTD SVG 20010904//EN"
 "http://www.w3.org/TR/2001/REC-SVG-20010904/DTD/svg10.dtd">
<svg version="1.0" xmlns="http://www.w3.org/2000/svg"
 width="500.000000pt" height="500.000000pt" viewBox="0 0 500.000000 500.000000"
 preserveAspectRatio="xMidYMid meet">

<g transform="translate(0.000000,500.000000) scale(0.100000,-0.100000)"
fill="#000000" stroke="none">
<path d="M1950 3355 c0 -12 13 -15 55 -15 l55 0 0 -145 c0 -122 2 -145 15
-145 13 0 15 23 15 145 l0 145 60 0 c47 0 60 3 60 15 0 13 -21 15 -130 15
-109 0 -130 -2 -130 -15z"/>
<path d="M2370 3210 c0 -136 2 -160 15 -160 12 0 15 15 15 75 l0 75 95 0 95 0
0 -75 c0 -60 3 -75 15 -75 13 0 15 24 15 160 0 136 -2 160 -15 160 -12 0 -15
-14 -15 -70 l0 -70 -95 0 -95 0 0 70 c0 56 -3 70 -15 70 -13 0 -15 -24 -15
-160z"/>
<path d="M2810 3210 l0 -160 111 0 c84 0 110 3 107 13 -3 8 -34 13 -96 15
l-92 3 0 59 0 60 81 0 c60 0 80 3 77 13 -3 8 -31 13 -81 15 l-77 3 0 54 0 55
90 0 c73 0 90 3 90 15 0 12 -18 15 -105 15 l-105 0 0 -160z"/>
<path d="M605 2817 c-99 -33 -172 -101 -201 -189 -67 -204 69 -409 272 -409
249 0 376 313 208 510 -68 78 -190 117 -279 88z m129 -158 c39 -31 56 -71 56
-134 0 -103 -41 -160 -115 -160 -86 0 -141 98 -115 203 12 52 24 70 60 95 33
23 82 21 114 -4z"/>
<path d="M1210 2688 c0 -249 20 -336 92 -405 49 -47 98 -64 186 -64 100 0 172
34 219 104 44 65 53 122 53 322 l0 175 -84 0 -85 0 -3 -194 c-3 -179 -5 -197
-24 -223 -43 -57 -128 -52 -162 11 -14 25 -18 65 -20 219 l-4 187 -84 0 -84 0
0 -132z"/>
<path d="M2000 2750 l0 -70 90 0 90 0 0 -230 0 -230 80 0 80 0 0 230 0 230 90
0 90 0 0 70 0 70 -260 0 -260 0 0 -70z"/>
<path d="M2770 2520 l0 -300 220 0 220 0 0 70 0 69 -137 3 -138 3 -3 228 -2
227 -80 0 -80 0 0 -300z"/>
<path d="M3460 2520 l0 -300 215 0 215 0 0 70 0 69 -132 3 -133 3 -3 48 -3 47
110 0 111 0 0 65 0 64 -107 3 -108 3 -3 43 -3 42 130 0 131 0 0 70 0 70 -210
0 -210 0 0 -300z"/>
<path d="M4110 2750 l0 -70 90 0 90 0 0 -230 0 -230 80 0 80 0 0 230 0 230 90
0 90 0 0 70 0 70 -260 0 -260 0 0 -70z"/>
<path d="M457 1919 c-56 -44 -60 -148 -6 -201 25 -25 35 -29 76 -26 27 2 48 8
51 16 3 10 -4 12 -29 7 -47 -8 -81 13 -97 59 -25 78 20 151 89 144 20 -2 34 2
36 10 8 22 -90 15 -120 -9z"/>
<path d="M720 1815 l0 -125 75 0 c60 0 75 3 75 15 0 12 -13 15 -60 15 l-60 0
0 110 c0 91 -3 110 -15 110 -13 0 -15 -21 -15 -125z"/>
<path d="M1033 1925 c-49 -34 -54 -160 -8 -209 18 -20 34 -26 65 -26 57 0 76
13 95 64 22 57 14 124 -20 160 -19 20 -34 26 -67 26 -24 0 -53 -7 -65 -15z
m94 -20 c27 -19 44 -74 36 -121 -6 -34 -42 -74 -68 -74 -7 0 -24 9 -37 20 -30
23 -40 71 -28 126 14 60 53 80 97 49z"/>
<path d="M1320 1925 c0 -11 11 -15 40 -15 l40 0 0 -110 c0 -91 3 -110 15 -110
12 0 15 19 15 110 l0 110 35 0 c24 0 35 5 35 15 0 12 -17 15 -90 15 -73 0 -90
-3 -90 -15z"/>
<path d="M1640 1815 c0 -104 2 -125 15 -125 12 0 15 13 15 55 l0 55 60 0 60 0
0 -55 c0 -42 3 -55 15 -55 13 0 15 21 15 125 0 104 -2 125 -15 125 -12 0 -15
-13 -15 -55 l0 -55 -60 0 -60 0 0 55 c0 42 -3 55 -15 55 -13 0 -15 -21 -15
-125z"/>
<path d="M1980 1815 c0 -104 2 -125 15 -125 13 0 15 21 15 125 0 104 -2 125
-15 125 -13 0 -15 -21 -15 -125z"/>
<path d="M2170 1815 c0 -104 2 -125 15 -125 12 0 15 17 15 96 l0 97 41 -59
c22 -33 52 -76 66 -96 14 -21 30 -38 34 -38 5 0 9 56 9 125 0 109 -2 125 -16
125 -14 0 -16 -12 -12 -94 l4 -94 -66 94 c-36 51 -71 93 -77 94 -10 0 -13 -31
-13 -125z"/>
<path d="M2550 1927 c-50 -39 -66 -127 -35 -187 20 -38 43 -50 97 -50 56 0 68
13 68 72 l0 48 -47 -1 c-48 -1 -48 -1 -15 -11 27 -9 32 -15 32 -44 0 -24 -5
-34 -21 -39 -29 -10 -74 12 -88 41 -36 79 12 169 86 162 22 -2 38 2 41 10 5
16 -97 16 -118 -1z"/>
<path d="M2957 1929 c-70 -41 -58 -216 16 -234 34 -9 103 -2 99 10 -1 6 -18 9
-37 7 -50 -5 -95 41 -95 97 0 22 5 51 11 65 14 30 60 51 94 42 18 -5 25 -2 25
9 0 11 -12 15 -47 15 -27 0 -56 -5 -66 -11z"/>
<path d="M3220 1815 l0 -125 71 0 c52 0 70 3 67 13 -3 7 -26 13 -56 15 l-52 3
0 45 0 44 50 0 c28 0 50 5 50 10 0 6 -22 10 -50 10 l-50 0 0 40 0 40 50 0 c38
0 50 4 50 15 0 12 -14 15 -65 15 l-65 0 0 -125z"/>
<path d="M3510 1815 c0 -77 4 -125 10 -125 6 0 10 39 10 97 l0 97 68 -97 c37
-53 73 -97 80 -97 9 0 12 32 12 125 0 104 -2 125 -15 125 -12 0 -15 -17 -15
-96 l0 -97 -37 55 c-70 101 -98 138 -105 138 -5 0 -8 -56 -8 -125z"/>
<path d="M3820 1925 c0 -10 11 -15 35 -15 l35 0 0 -110 c0 -91 3 -110 15 -110
12 0 15 19 15 110 l0 110 40 0 c29 0 40 4 40 15 0 12 -17 15 -90 15 -73 0 -90
-3 -90 -15z"/>
<path d="M4140 1815 c0 -104 2 -125 15 -125 12 0 15 13 15 55 0 40 4 55 14 55
7 0 30 -25 50 -55 20 -30 43 -55 51 -55 18 0 9 23 -32 78 l-25 33 26 20 c32
25 35 70 6 99 -15 15 -33 20 -70 20 l-50 0 0 -125z m94 89 c22 -22 20 -50 -6
-68 -43 -30 -58 -21 -58 34 0 46 2 50 24 50 14 0 32 -7 40 -16z"/>
<path d="M4440 1815 l0 -125 70 0 c56 0 70 3 70 15 0 12 -13 15 -56 15 l-55 0
3 43 3 42 48 3 c63 4 61 22 -3 22 l-50 0 0 40 0 40 55 0 c42 0 55 3 55 15 0
12 -14 15 -70 15 l-70 0 0 -125z"/>
</g>
</svg>
